<svg xmlns="http://www.w3.org/2000/svg" width="31" height="31" viewBox="0 0 31 31" fill="none">
<path d="M14.1721 25.6504C13.9637 25.8588 13.6858 25.9978 13.3385 25.9978C12.9911 25.9978 12.6437 25.8588 12.4353 25.6504L10.4206 23.5662C10.1427 23.3578 10.0037 23.0799 10.0037 22.7325C10.0037 22.3852 10.1427 22.0378 10.4206 21.8294L16.4648 15.7157L10.4206 9.602C10.1427 9.39358 10.0037 9.04621 10.0037 8.69884C10.0037 8.35147 10.1427 8.07358 10.4206 7.86516L12.4353 5.78095C12.6437 5.57253 12.9911 5.43358 13.3385 5.43358C13.6858 5.43358 13.9637 5.57253 14.1721 5.78095L23.2037 14.8125C23.4816 15.0904 23.6206 15.3683 23.6206 15.7157C23.6206 16.0631 23.4816 16.3409 23.2037 16.6188L14.1721 25.6504ZM30.429 15.7157C30.429 12.9367 29.8037 10.3662 28.4142 8.07358C27.0248 5.71147 25.2185 3.90516 22.8564 2.51568C20.5637 1.12621 17.9932 0.500946 15.2142 0.500946C12.4353 0.500946 9.86477 1.12621 7.57214 2.51568C5.21004 3.90516 3.40372 5.71147 2.01425 8.07358C0.624775 10.3662 -0.000488281 12.9367 -0.000488281 15.7157C-0.000488281 18.4946 0.624775 21.0652 2.01425 23.3578C3.40372 25.7199 5.21004 27.5262 7.57214 28.9157C9.86477 30.3052 12.4353 30.9304 15.2142 30.9304C17.9932 30.9304 20.5637 30.3052 22.8564 28.9157C25.2185 27.5262 27.0248 25.7199 28.4142 23.3578C29.8037 21.0652 30.429 18.4946 30.429 15.7157Z" fill="#FF6D2C"/>
</svg>