<?xml version="1.0" encoding="utf-8"?>
<!-- Generator: Adobe Illustrator 26.3.1, SVG Export Plug-In . SVG Version: 6.00 Build 0)  -->
<svg version="1.1" id="Layer_1" xmlns="http://www.w3.org/2000/svg" xmlns:xlink="http://www.w3.org/1999/xlink" x="0px" y="0px"
	 viewBox="0 0 624.9 224.7" style="enable-background:new 0 0 624.9 224.7;" xml:space="preserve">
<style type="text/css">
	.st0{fill:#A8ADB2;}
</style>
<g>
	<g>
		<path class="st0" d="M556.1,100.8c4.6-11.8,5.5-22.5,5.7-27.9l59-8.1l4.1-18.3L501.6,64.1c-1.4-4.2-2.7-8.2-3.2-10.5
			c10.5-3.7,38.3-12.8,38.3-33.4c0-12.5-13.5-20.2-29-20.2c-19.5,0-35.1,11.4-35.1,35.8c0,6.5,1.4,14.4,3.5,20.4
			c-16,7.2-53.6,22.1-53.6,54.3c0,23.2,33,39.8,68.9,37c4.6-0.1,9.5-0.8,14.5-2.2c2-0.5,4-1,6-1.6c3.5-1,5.3-1.8,6.3-2.3
			c11.8,15.2,50.8,50,79.1,63.4l4.6-23.5c-27.7-9.3-50.3-31.5-65.7-51.7C546.4,120.6,552.6,109.9,556.1,100.8z M508.8,5.8
			c5.1,0,8.1,5.3,8.1,11.4c0,16.3-11.1,26.2-19.7,31.1c-0.9-3.9-2.6-12.5-2.6-19.7C494.6,14,502.3,5.8,508.8,5.8z M504.5,136.3
			c-14.2,4.1-26.6,2.3-35.1-5.1c-7.3-6.4-10.7-16.5-9.1-27c2-12.6,16.8-26.2,22.9-31.6c6.8,21.8,15.4,41.6,29,61
			C509.8,134.6,507.2,135.5,504.5,136.3z M530.6,122.3c-5.8-8.7-20.1-35.5-22.6-41.5l-0.2-0.5l44.7-6.1
			C552.1,83.7,548.9,106.2,530.6,122.3z"/>
	</g>
</g>
<path d="M433.2,94.7c-3.8,11.6-13.1,18.1-25.6,18.1c-15.6,0-27.8-12.4-27.8-28.4c0-15.7,12.2-28.6,27.3-28.6
	c14,0,27.5,11.6,27.4,30.9h-45.6c1.2,11.3,9.8,17.9,18.8,17.9c7.7,0,13.2-3.7,16.1-10L433.2,94.7L433.2,94.7z M424.5,78.8
	C422.3,69.9,414.9,64,407,64c-7.5,0-15.4,5.5-17.7,14.8H424.5z"/>
<path d="M77.1,111.6h-9V77.8c0-8.4-4-13.6-12.3-13.6c-7.4,0-12.8,6.1-12.8,14.2v33.2h-8.9V77.8c0-8.4-4.2-13.6-12.2-13.6
	C14.5,64.2,9,70.3,9,78.4v33.2H0V57.3h8.6v5.9C12,58.7,17,55.9,23,55.9c7.7,0,13.4,3.5,16.8,9.3c3.4-5.6,9.2-9.3,17-9.3
	c12.5,0,20.1,8.5,20.1,22v33.7L77.1,111.6L77.1,111.6z"/>
<path d="M140.2,111.6h-8.6v-8.7c-3.8,5.6-10.8,10.1-18.8,10.1c-15.6,0-27.2-12.8-27.2-28.5s11.6-28.6,27.2-28.6c8,0,15,4.5,18.8,10
	v-8.6h8.6V111.6L140.2,111.6z M112.8,64.5c-10.2,0-18.2,9.1-18.2,20.1c0,10.9,8,19.8,18.2,19.8c10,0,18.4-9,18.4-19.8
	C131.3,73.6,122.8,64.5,112.8,64.5z"/>
<path d="M173.2,113c-13.2,0-22.8-7.1-24.2-18.6h9.1c1.2,6.3,7.4,10.2,15.2,10.2c8.4,0,13.6-4.1,13.6-8.9c0-3.8-1.5-6.6-14.8-8.4
	c-13.2-1.9-21.2-5.1-21.2-15.3c0-7.8,6.7-16.1,21.3-16.1c12.5,0,21,6.3,22.1,17h-9.1c-1.3-5.8-6.4-8.7-13.1-8.7
	c-7.2,0-12.3,3.4-12.3,7.6c0,3.9,3.1,5.3,13.7,7c12,1.9,21.9,4.2,21.9,16.5C195.5,106.1,186.2,113,173.2,113z"/>
<path d="M225,113c-13.2,0-22.8-7.1-24.2-18.6h9.1c1.2,6.3,7.4,10.2,15.2,10.2c8.4,0,13.6-4.1,13.6-8.9c0-3.8-1.5-6.6-14.8-8.4
	c-13.2-1.9-21.2-5.1-21.2-15.3c0-7.8,6.7-16.1,21.3-16.1c12.5,0,21,6.3,22.1,17H237c-1.3-5.8-6.4-8.7-13.1-8.7
	c-7.2,0-12.3,3.4-12.3,7.6c0,3.9,3.1,5.3,13.7,7c12,1.9,21.9,4.2,21.9,16.5C247.2,106.1,237.9,113,225,113z"/>
<path d="M307.3,111.6h-8.6v-8.7c-3.8,5.6-10.8,10.1-18.8,10.1c-15.6,0-27.2-12.8-27.2-28.5s11.6-28.6,27.2-28.6c8,0,15,4.5,18.8,10
	v-8.6h8.6V111.6z M279.9,64.5c-10.2,0-18.2,9.1-18.2,20.1c0,10.9,8,19.8,18.2,19.8c10,0,18.4-9,18.4-19.8
	C298.3,73.6,289.9,64.5,279.9,64.5z"/>
<path d="M371,109.1c0,17.4-11.3,29.2-27.9,29.2c-12.9,0-22.9-6.9-25.6-17.9h9.4c3.6,8.1,12.2,9.3,16.2,9.3c13.9,0,19-10.8,19-20.6
	v-5.7c-3.9,5.3-10.6,9.6-18.4,9.6c-15.6,0-27.2-12.8-27.2-28.5s11.6-28.6,27.2-28.6c8,0,15,4.5,18.8,10v-8.6h8.6v51.8L371,109.1
	L371,109.1z M343.6,64.3c-10.2,0-18.2,9.1-18.2,20.3c0,11.1,8,20.1,18.2,20.1c10,0,18.4-9.1,18.4-20.1
	C362,73.4,353.6,64.3,343.6,64.3z"/>
<path d="M61.4,199.4c-8,0-15-4.5-18.8-10.1v8.7H34v-78h9v31.9c3.9-5.3,10.6-9.6,18.4-9.6c15.6,0,27.1,12.9,27.1,28.7
	C88.6,186.6,77.1,199.4,61.4,199.4z M61.4,150.9c-10,0-18.4,9.1-18.4,20.1c0,10.9,8.4,19.8,18.4,19.8c10.1,0,18.1-9,18.1-19.8
	C79.6,160,71.6,150.9,61.4,150.9z"/>
<path d="M148.9,171c0,15.6-11.8,28.2-27.3,28.2c-15.4,0-27.3-12.6-27.3-28.2c0-15.8,11.9-28.7,27.3-28.7
	C137.1,142.4,148.9,155.2,148.9,171z M140,171c0-11.3-8.2-20.4-18.3-20.4c-10,0-18.2,9.2-18.2,20.4c0,11.1,8.2,20,18.2,20
	C131.8,191.1,140,182.1,140,171z"/>
<path d="M209.2,198h-8.6v-8.7c-3.8,5.6-10.8,10.1-18.8,10.1c-15.6,0-27.2-12.8-27.2-28.4c0-15.8,11.6-28.7,27.2-28.7
	c7.8,0,14.5,4.3,18.4,9.6V120h9V198z M181.8,150.9c-10.2,0-18.2,9.1-18.2,20.1c0,10.9,8,19.8,18.2,19.8c10,0,18.4-9,18.4-19.8
	C200.3,160,191.8,150.9,181.8,150.9z"/>
<path d="M266.6,143.7V202c0,14.2-9.9,22.7-22.7,22.7c-11.4,0-20.2-6.7-22.3-17.9h9.1c1.9,5.8,6.3,9.3,13.3,9.3
	c8.3,0,13.7-5.7,13.7-14V194c-3.3,3.5-7.8,5.4-13.7,5.4c-12.8,0-22.7-9-22.7-22.7v-33h8.9v32.9c0,8.1,5.4,14,13.8,14
	c8.3,0,13.7-5.9,13.7-14v-32.9L266.6,143.7L266.6,143.7z"/>
<path d="M326,184.5l11.5-40.8h9.4L330.7,198h-9.4l-11.6-41.5L298.1,198h-9.3l-16.2-54.3h9.4l11.6,40.8l11.6-40.8h9.3L326,184.5z"/>
<path d="M402.8,171c0,15.6-11.8,28.2-27.3,28.2c-15.4,0-27.3-12.6-27.3-28.2c0-15.8,11.9-28.7,27.3-28.7
	C391,142.4,402.8,155.2,402.8,171z M393.9,171c0-11.3-8.2-20.4-18.3-20.4c-10,0-18.2,9.2-18.2,20.4c0,11.1,8.2,20,18.2,20
	C385.6,191.1,393.9,182.1,393.9,171z"/>
<path d="M457.3,169h-8.9v-4c0-8.4-4.8-14.4-13.3-14.4c-8.2,0-14.2,6.1-14.2,14.2V198h-9v-54.3h8.6v5.9c3.7-4.5,9.3-7.3,15.8-7.3
	c13.3,0,20.9,9.5,20.9,23v3.7L457.3,169L457.3,169z"/>
<path d="M513.8,198h-10.9l-18.6-27.6l-10.4,10.1V198h-9v-78h9v48l24.8-24.3h13.2l-21,20.3L513.8,198z"/>
</svg>
