<?xml version="1.0" encoding="utf-8"?>
<!-- Generator: Adobe Illustrator 26.3.1, SVG Export Plug-In . SVG Version: 6.00 Build 0)  -->
<svg version="1.1" id="Layer_1" xmlns="http://www.w3.org/2000/svg" xmlns:xlink="http://www.w3.org/1999/xlink" x="0px" y="0px"
     viewBox="0 0 952 351" style="enable-background:new 0 0 952 351;" xml:space="preserve">
<style type="text/css">
	.st0{fill:#174A7C;}
	.st1{fill:#56A0D3;}
</style>
  <g>
	<path class="st0" d="M159.1,147.5v55.3h-10.3v-7.1c-1.5,3-2.9,5.1-4.4,6.3c-1.5,1.1-3.4,1.7-5.8,1.7c-4.6,0-8-2.3-10.1-7.1
		c-2.1-4.7-3.2-12.1-3.2-22.1c0-9.6,1.1-16.6,3.2-21.1c2.1-4.5,5.5-6.8,10.1-6.8c4.2,0,7.6,2.4,10.2,7.1v-6.2H159.1z M135.9,174.9
		c0,7.3,0.5,12.3,1.5,15.2c1,2.9,2.8,4.3,5.3,4.3c2.3,0,4-1.5,5-4.5c1-3.2,1.6-8.1,1.6-14.8c0-6.7-0.5-11.6-1.6-14.9
		c-1-3-2.7-4.5-5-4.5c-2.4,0-4.2,1.4-5.2,4.3C136.4,162.7,135.9,167.7,135.9,174.9z"/>
    <path class="st0" d="M170.5,112h10.2v41.8c0.7-1.4,1.4-2.5,2.2-3.4c0.7-0.9,1.5-1.6,2.2-2.1c1.4-1.1,3.3-1.6,5.6-1.6
		c2.4,0,4.4,0.5,6.1,1.6c1.7,1.1,3.1,2.8,4.2,5c1.1,2.3,1.9,5.2,2.4,8.7c0.5,3.5,0.8,7.7,0.8,12.5c0,10-1.1,17.4-3.2,22.1
		c-2.1,4.7-5.5,7-10,7c-2.4,0-4.4-0.6-5.8-1.7c-1.5-1.1-2.9-3.2-4.4-6.3v7.1h-10.3V112z M193.7,175.4c0-7.5-0.5-12.6-1.5-15.3
		c-1-2.9-2.7-4.3-5.2-4.3c-2.4,0-4,1.5-5,4.4c-1,2.9-1.5,7.9-1.5,15c0,7.1,0.5,12,1.5,15c1,2.9,2.6,4.3,5,4.3c2.4,0,4.2-1.4,5.2-4.3
		C193.2,187.5,193.7,182.6,193.7,175.4z"/>
    <path class="st0" d="M213.7,147.5H224v6.8c2.8-5.1,6.5-7.7,11.2-7.7c5.1,0,8.5,2.6,10.3,7.8c2.7-5.2,6.5-7.8,11.5-7.8
		c3.9,0,6.8,1,8.9,3.1c2,2,3.1,5.1,3.1,9v44h-10.4v-36.4c0-4.2-0.4-7-1.2-8.4c-0.7-1.5-2.2-2.2-4.3-2.2c-2.4,0-4.1,0.8-5,2.2
		c-0.8,1.5-1.3,4.2-1.3,8.3v36.4h-10.6v-36.4c0-2-0.1-3.6-0.3-5c-0.2-1.4-0.5-2.4-1-3.3c-0.5-0.8-1.1-1.4-1.8-1.8
		c-0.7-0.4-1.7-0.6-2.8-0.6c-2.3,0-4,0.8-5,2.4c-1,1.6-1.5,4.3-1.5,8.2v36.4h-10.3V147.5z"/>
    <path class="st0" d="M280.4,234.2v-86.7h10.2v7.2c1.4-3,2.9-5.1,4.4-6.3c1.5-1.2,3.4-1.7,5.9-1.7c4.5,0,7.9,2.4,10,7.1
		c2.1,4.7,3.2,12.1,3.2,22.1c0,9.8-1.1,16.9-3.2,21.2c-2.1,4.4-5.5,6.6-10.3,6.6c-2.3,0-4.1-0.5-5.6-1.5c-0.7-0.5-1.4-1.2-2.1-2.1
		c-0.7-0.9-1.4-2-2.1-3.4v37.6H280.4z M303.5,175.4c0-7.5-0.5-12.6-1.5-15.3c-1-2.9-2.7-4.3-5.2-4.3c-2.4,0-4,1.5-5,4.5
		c-1,2.8-1.5,7.7-1.5,14.8c0,7.1,0.5,12.1,1.5,14.8c1,2.9,2.7,4.4,5,4.4c2.4,0,4.1-1.4,5.2-4.3C303,187.5,303.5,182.6,303.5,175.4z"
    />
</g>
  <g>
	<path class="st1" d="M71.1,268.8c-0.4-3.3-4.3-6.1-3.6-8.5c18,32.4,47.6,57.6,86.1,71.6c19.2,7,42.5,11.5,66.7,10.9
		c23.5-0.6,45.9-6.2,63.1-15.8v-1.2c-8.4,2.7-16.8,5.5-26.1,7.3c-9.7,1.9-20,2.5-30.3,3c-11.1,0.6-21.7,1-32.1,0
		c-9.5-1-18.6-3.5-27.3-6.1c-4.2-1.3-8.1-2.6-12.1-4.2c-4.1-1.6-8.2-2.9-12.1-4.9c-6.3-3.1-13.1-7.7-18.2-10.9
		c-1-0.6-1.5-1.2-2.4-1.8c-13.5-9.3-26.3-19.9-35.2-31.5c-1.2-1.5-2.4-3.2-3-4.2c-0.4-0.6-0.2-1.2-0.6-1.8c-0.6-0.9-1.9-1.6-2.4-2.4
		c-1.1-1.8-1.8-3.8-2.4-4.9c-1-1.8-1.6-3.3-2.4-4.9c-2.5-4.5-4.7-8.8-6.7-13.3c-2.1-4.9-3.3-9.9-4.9-14.6c-0.8-2.3-2.9-4.6-1.8-7.3
		c9,31.5,26,56.9,49.7,77c11,9.4,24.8,17.9,40,23.7c15.6,5.9,33.8,10.3,53.4,10.3c20.8,0,41.7-5.4,57-12.1c1.6-0.7,2.7-1.7,4.2-2.4
		c0.8-0.4,2.2-0.2,3-0.6c0.8-0.4,1-1.4,1.8-1.8c3.1-1.6,6.2-3.1,9.1-4.9c5.9-3.6,11-7.4,15.8-11.5c14.9-13,27.5-29.4,35.2-48.5
		c1.1-2.8,4.1-6.4,1.8-9.7c-4.2,0.5-4.1,5-5.5,7.3c-0.9,1.5-2.3,2.9-3,3.6c-0.5,0.5-0.2,1.2-0.6,1.8c-0.2,0.3-1,0.3-1.2,0.6
		c-0.4,0.5-0.3,1.4-0.6,1.8c-1.2,1.7-3,3.2-4.2,4.9c-5.1,6.4-10.4,12.8-16.4,18.8c-8.3,8.3-19.7,16.5-30.3,22.4
		c-4.1,2.3-8,4.9-12.1,6.1c-4.5,1.3-11.2,1.6-17,1.8c-5.1,0.2-10.2,0.2-15.2,0c39.8-6.4,67.3-30.1,80.7-63.1
		c1.5-3.7,3.4-8.4,4.2-12.1c0.5-2.4,2.1-5.9-0.6-7.9c-3.3,0.6-3.3,4.6-4.2,6.7c-1.6,3.3-3.6,6.5-4.9,8.5c-2,3.1-3.6,6-5.5,8.5
		c-18.7,25.3-50.9,47.4-92.8,47.3c-16.9,0-32.8-4.6-44.3-9.1c-2.8-1.1-4.6-2.1-6.7-3c-14.7-6.9-26.8-15.8-36.4-26.7
		c-0.9-1.1-2.2-2-3-3c-1.2-1.5-2.2-4-3-4.9c-0.5-0.5-0.7-1.3-1.2-1.8c-2.7-2.8-3.7-6-5.5-9.1c-3.2-5.8-5.7-11.5-7.9-17.6
		c-0.6-1.6-1.3-3.2-1.8-4.9c-1.5-4.9-2-10.8-4.9-13.3c-2.1-0.5-1.7-1.4-2.4-3c-2-4.5-2.2-13.3-3-18.8c-0.3-2.3-1.2-5-1.2-6.7
		c0-1.2,0.9-2.6,1.2-4.2c0.4-1.8,0.2-3.8,0.6-5.5c2.2-9.3,6.6-19.1,10.3-25.5c-10,28.5-7.1,56.8,3,80c3.3,7.6,8.2,14.9,12.7,20.6
		c1.7,2.1,3.1,4.8,4.9,6.7c1.6,1.8,3.7,3.8,5.5,5.5c0.5,0.5,1.2,0.2,1.8,0.6c0.5,0.4,0.7,1.4,1.2,1.8c1.6,1.4,3.8,2.7,4.8,3.6
		c1.8,1.6,3,2.4,4.9,3.6c14.9,9.9,33.9,17.2,57.6,15.2c2.6-0.2,5.3-1.2,7.9-1.8c2.5-0.6,6.5,0,7.3-3c-1.9-1.6-4.4-0.8-6.1-0.6
		c-2.6,0.3-4.8,1.1-7.3,1.2c-3.2,0.2-6.5,0.2-9.7,0c-12.6-0.8-24.1-4.8-34.6-10.3c-4.8-2.6-9.8-5.3-13.9-8.5
		c-20.7-16.2-36.4-45.5-36.4-76.4c0-3.2-0.1-7.6,0.6-10.9c0.5-2.2,2.9-5.5,3.6-7.3c0.4-0.8,0.3-2.3,0.6-3c1.5-3.3,3.9-6.6,5.5-9.7
		c1.7-3.4,3.1-7.2,4.8-10.3c0.9-1.6,2.1-2.8,3-4.2c7.3-11.4,14.5-20.7,24.3-28.5c2.6-2.1,6.9-4.3,6.7-8.5c-1.9-3.7-7.1,1.4-7.9,0.6
		c5.4-4.6,12.8-7.1,19.4-9.1c1.5-0.4,2.8-0.8,4.2-1.2c0.4-0.1,1.5-0.4,2.4-0.6c3.8-1,4.9-1.8,6.7-3.6c0.4-0.4,0.2-1.4,0.6-1.8
		c0.2-0.2,2.2-0.5,2.4-0.6c3-1.5,7.9-1.7,12.1-2.4c4.5-0.7,9.2-1.6,13.3-1.8c21.4-1.3,42,4.5,55.8,10.9c3.4,1.6,6.7,3.8,9.7,5.5
		c2.8,1.5,5.1,2.9,7.3,4.2c1.9,1.2,3,2.1,4.2,3c0.7,0.5,1.8,0.7,2.4,1.2c1.4,1,2.4,2.6,3.6,3.6c0.7,0.6,1.7,0.6,2.4,1.2
		c0.7,0.6,1.1,1.8,1.8,2.4c1.3,1.1,3,1.9,4.2,3c1.4,1.3,2.3,2.9,3.6,4.2c7.2,7.7,14.3,16.4,19.4,25.5c1.8,3.2,3.2,7,4.9,10.3
		c1.5,3.1,3,7.3,7.3,7.9c5.2-5.4,0.9-13.1-1.2-18.2c-1.8-4.4-4.3-8.9-6.1-12.1c-0.9-1.6-1.8-4.2-2.4-4.9c-0.5-0.5-0.7-1.3-1.2-1.8
		c-0.4-0.5-0.2-0.6-0.6-1.2c-0.7-1-2.2-2-3-3c-0.2-0.3,0.1-0.9,0-1.2c-0.1-0.2-1.1-0.4-1.2-0.6c-3.1-4.4-6.1-8-9.7-11.5
		c-2.3-2.3-5.2-5.1-7.3-6.1c-0.2-0.1-0.4-1.1-0.6-1.2c-2-1.7-4.3-3.4-6.1-4.2c-0.2-0.1-0.4-1.1-0.6-1.2c-9.2-6.6-21.1-12.9-31.5-17
		c-13.9-5.4-31.2-9.5-48.5-9.7c-23.7-0.3-43.1,5.9-58.8,13.9c-10.6,5.4-19.5,13.1-27.9,20.6c-4.4,3.9-8.7,7.5-12.7,11.5
		c-2.7,2.6-5.3,5.5-7.3,7.9c-1.2,1.4-3.6,5-4.2,4.2c4.1-5.5,7.7-11.7,12.1-17c2.2-2.6,4.7-4.7,7.3-7.3c2.5-2.5,4.7-5.7,7.3-7.9
		c0.6-0.5,1.6-0.5,2.4-1.2c2.1-1.9,3.8-3.2,6.1-4.9c7.9-5.8,16.8-12.2,26.7-15.2c0.2-0.1,0.9-1.1,1.2-1.2
		c13.9-5.8,30.5-9.5,47.9-10.9c20-1.6,41.2,1.2,55.8,5.5c0.8,0.2,2.1,0.3,3,0.6c15.2,4.4,29.2,10.9,40.6,18.2
		c5.9,3.8,11.6,8.7,16.4,12.7c1.4,1.2,3.1,2,4.2,3c2.6,2.4,4.9,5.3,7.3,7.9c14.5,15.7,25.8,33.8,32.7,55.8c1.5,4.7,2.7,10,3.6,14.6
		c0.2,1,0.3,2,0.6,3c0.4,1.4,0.8,4.5,3,4.9c3-5.7-0.2-14.1-1.2-18.2c-1.1-4.5-1.9-7.6-3-10.9c-9.1-27.1-24.9-47.8-43.7-63.7
		c-19.6-16.7-43-28.6-71.6-35.8c-9.9-2.5-20.4-4.9-30.9-5.5c-44.5-2.5-83.6,13-108.5,36.4c-5.3,5-10.9,10.6-15.2,15.8
		c-0.8,1-1.8,1.6-2.4,2.4c-0.5,0.7-0.6,2.2-1.2,3c-0.6,0.8-1.9,1.6-2.4,2.4c-1.9,2.7-3.4,6-4.9,8.5c-0.7,1.2-1.2,1.9-1.8,3
		c-5.6,10.2-9.6,21.1-12.1,33.4c-1.1,5.4-1.4,10.7-1.8,16.4c-0.4,5.5,0,10.6,0,17c0,2.6-0.6,5.3-0.6,7.9c0.1,9.8,1.9,19.3,3.6,26.7
		c0.6,2.6,1.5,5.3,1.2,7.9c-6.9-19.3-10.4-40.2-8.5-63.1c1.3-16.2,5.6-31.4,10.9-43.7c11.9-27.6,31-49.2,54.6-63.7
		c2-1.2,4-1.9,6.1-3c1.8-1,3.4-2.7,5.5-3.6c0.5-0.2,1.3,0.2,1.8,0c0.2-0.1,0.9-1.1,1.2-1.2c2.8-1.2,4.2-1.8,6.1-3c3-2,6.4-4,6.7-7.9
		c-7.2-4.9-15.5,0.4-20,2.4c-2.4,1.1-4.8,1.5-6.7,2.4c-0.8,0.4-1.5,1.3-2.4,1.8c-3.3,1.9-5.9,3.2-8.5,4.9
		c-9.2,5.9-17.3,12.7-24.3,19.4c-0.7,0.7-1.8,1.1-2.4,1.8c-0.8,0.9-1,2.2-1.8,3c-2.9,3.2-5.9,5.9-8.5,9.1c-1.4,1.7-2.4,3.7-3.6,5.5
		c-1.5,2.1-3.8,4.6-4.9,6.1c-0.4,0.5-0.3,1.4-0.6,1.8c-17.3,27.6-29,66.8-20,111.6c-1.2-0.8-1.5-4.4-3.6-2.4
		c-1.1,8.5,3,18.6,4.8,24.9c0.9,3.1,1.7,5.5,2.4,7.3c1.1,2.7,2,4.8,1.8,6.7c-3.2-3.1-3.8-7.6-5.5-12.1c-0.8-2-1.7-3.8-2.4-6.1
		c-3.7-11.6-6.6-24.2-7.3-37.6c-0.9-17.4,0.7-33.4,3.6-46.7c1.8-8.1,5.1-15.3,6.1-22.4c-3.4,1.5-4.4,5.9-5.5,9.1
		c-3.8,11.5-6.5,24.4-7.3,37.6c-1.3,22.6,1.5,41.1,6.7,57.6c3.4,11.1,8.3,20.9,12.1,29.7c-0.6,0-0.7-0.5-1.2-0.6
		c-0.6-2.5-1.5-3.5-2.4-5.5c-2.5-5.4-5.4-11.4-7.3-16.4c-0.4-1-0.2-1.9-0.6-3c-0.6-1.6-1.9-3.3-2.4-4.9c-0.6-1.7-0.7-3.8-1.2-5.5
		c-4.7-16.2-7.9-36.3-6.7-56.4c0.8-13.3,4-26.1,7.9-37c4-11.2,9.8-20.8,14.6-30.3l-0.6-1.2c-6.9,8.7-12.5,19.5-17,30.9
		c-4.5,11.6-8.3,24.5-9.1,38.8c-1.4,25.7,4.1,45.1,10.9,63.7c2.6,7.2,5.3,14.3,8.5,20.6c1.6,3.2,3.8,6.1,5.5,9.1
		c1.8,3.2,2.8,6.7,5.5,9.1"/>
    <path class="st1" d="M53.1,129.3c0.1-9.4-16.9,21.8-14.8,13.3c2-8.3,4.1-15.6,7.3-23.6c3.7-9.2,8.5-18.1,13.9-26.7
		c2.2-3.4,4.6-6.8,7.3-10.3c0.4-0.5,0.2-1.3,0.6-1.8c0.4-0.5,1.4-0.7,1.8-1.2c0.9-1.1,1.8-2.8,3-4.2c5-6.1,11.3-12.8,17.6-18.2
		c0.9-0.8,1.6-1.7,2.4-2.4c1.9-1.6,4.1-2.7,6.1-4.2c1.9-1.5,3.6-3.5,5.5-4.9c0.6-0.4,1.3-0.2,1.8-0.6c16.1-12.3,37.4-22.1,60.6-27.9
		c11.6-2.9,24.9-3.9,37.6-5.5c5-0.6,11.2-0.3,17,0c30,1.4,56.5,9.2,78.8,19.4c2.7,1.2,6.4,2,8.5,4.2c0.3,0.3,1.4,1.2,0.6,1.8
		c-4-0.5-7.4-2.8-10.9-4.2c-3.7-1.5-7.3-2.3-10.9-3.6c-1.5-0.6-3.3-1.9-4.9-2.4c-5-1.7-10.9-3.2-17-4.9c-20.1-5.4-45.9-8.9-71.6-6.1
		c-10.5,1.2-21.1,3.4-30.9,6.1c-4.7,1.3-10.4,2.9-15.8,4.9c-7.7,2.7-17.4,7.3-24.9,11.5c-1.6,0.9-2.9,1.9-4.9,3
		c-4,2.3-9.7,6-13.9,9.1c-2.9,2.1-5.5,4.8-8.5,7.3c-0.4,0.3-0.8,0.9-1.2,1.2c-0.4,0.3-1.4,0.2-1.8,0.6C88,62.3,85,66.3,81.4,69.9
		c-2.3,2.2-4.4,4.3-6.7,6.7c-0.9,1-1.8,2.7-3,4.2c-6.3,7.8-12.2,16-17,24.9c-10.1,18.5,2.5-0.2-0.4,23.7"/>
    <path class="st1" d="M111.1,173c1.3,6.4-0.4,11.6,0,19.4c0.5,9.6,2.4,18.7,5.5,26.7c1.5,3.9,3.4,7.3,5.5,10.9
		c0.5,0.9,0.6,2.1,1.2,3c0.9,1.3,2.4,2.6,3.6,4.2c3,4.2,8,9.4,12.7,12.7c1,0.7,2.4,1,3.6,1.8c1.1,0.7,2,1.8,3,2.4
		c1.6,0.9,6.1,0.8,5.5,4.2c-3.7,0.2-6.8-2.5-9.7-4.2c-0.9-0.5-2.3-0.7-3-1.2c-1.6-1.1-3-2.8-4.9-4.2c-1.8-1.5-4.6-3-6.1-4.9
		c-0.3-0.4-0.2-1.4-0.6-1.8c-1.7-2-4.2-4.1-6.1-6.7c-9.4-13.2-17.5-36.6-12.7-60.6c-0.2-1,0.6-1,0.6-1.8
		C109.9,173,110.5,173,111.1,173z"/>
    <path class="st1" d="M266.7,331.6c0,0,21.4-5.5,39.3-22.4c0,0,27.8-23.4,43.7-56.6c0,0,3.5-6,5-23.4c0,0,1.5-21.9-3-41.7
		c0,0,2-1,3.5,9.4c0,0,2,21.4,1.5,28.3c0,0,1,26.3-17.4,49.2c0,0-25.8,39.3-64.1,56.6l-9.4,4L266.7,331.6z"/>
</g>
  <path class="st0" d="M414.3,105l11.7,54.3h-7.3l-2-10.6h-10.8l-2,10.6h-7.1l11.8-54.3H414.3z M414.1,135.3l-2.7-19.7h-0.1l-4.3,27.6
	h8.6L414.1,135.3z"/>
  <path class="st0" d="M443.2,130.4c-1.3-1.2-3.4-1.9-5-1.9c-2.5,0-4.6,1.4-4.6,3.9c0.1,6.1,11.4,6.4,11.4,16.8
	c0,6.4-4,10.8-10.4,10.8c-2.4,0-3.9-0.5-5.9-1.7v-6.6c1.7,1.4,3.3,2.3,5.6,2.3c3,0,4.5-1.8,4.5-4.6c0-6.4-11.4-6.8-11.4-16.9
	c0-5.8,4-9.9,9.7-9.9c2.3,0,4.2,0.4,6.1,1.6V130.4z"/>
  <path class="st0" d="M463,130.4c-1.3-1.2-3.4-1.9-5-1.9c-2.5,0-4.6,1.4-4.6,3.9c0.1,6.1,11.4,6.4,11.4,16.8c0,6.4-4,10.8-10.4,10.8
	c-2.4,0-3.9-0.5-5.9-1.7v-6.6c1.7,1.4,3.3,2.3,5.6,2.3c3,0,4.5-1.8,4.5-4.6c0-6.4-11.4-6.8-11.4-16.9c0-5.8,4-9.9,9.7-9.9
	c2.3,0,4.2,0.4,6.1,1.6V130.4z"/>
  <path class="st0" d="M468.1,141.2c0-7.9,1.1-18.9,11.4-18.9s11.4,10.9,11.4,18.9c0,7.6-1.1,18.6-11.4,18.6S468.1,148.9,468.1,141.2z
	 M484.1,141.2c0-2.9,0.6-12.7-4.5-12.7s-4.5,9.8-4.5,12.7c0,2.6-0.6,12.5,4.5,12.5S484.1,143.8,484.1,141.2z"/>
  <path class="st0" d="M511.3,130.4h-0.1c-0.7-1.1-1.7-1.7-3.2-1.7c-5.8,0.1-6,8.2-6,12.1c0,3.7,0.1,12.7,5.8,12.7
	c1.5,0,2.4-0.6,3.5-1.4v6.3c-1.7,1-3.5,1.4-5.5,1.4c-9.6,0-10.7-11.2-10.7-18.4c0-7.5,0.9-19.1,10.8-19.1c2,0,3.6,0.4,5.4,1.2V130.4
	z"/>
  <path class="st0" d="M515.1,111.9c0-2.4,2-4.5,4.5-4.5c2.4,0,4.5,2,4.5,4.5c0,2.5-2.1,4.5-4.5,4.5
	C517.1,116.5,515.1,114.5,515.1,111.9z M522.9,159.3h-6.8V123h6.8V159.3z"/>
  <path class="st0" d="M543.5,154.6h-0.1c-1.4,3.2-2.8,5.3-6.7,5.3c-8.4,0-8.6-13.3-8.6-19.2c0-6,0.2-18.3,8.8-18.3
	c3.2,0,5.3,1.9,6.5,4.6h0.1v-4h6.8v36.4h-6.8V154.6z M543.7,141.1c0-2.9,0.3-12.7-4.2-12.7c-5,0-4.5,9.7-4.5,12.7
	c0,3-0.6,12.7,4.5,12.7C544,153.8,543.7,144,543.7,141.1z"/>
  <path class="st0" d="M564.7,112.7V123h3.6v5.3h-3.6v31h-6.8v-31h-3.7V123h3.7v-10.3H564.7z"/>
  <path class="st0" d="M578.3,142.5c0,3-0.1,11.4,4.2,11.4c3.6,0,4.2-4,4.2-6.8h6.3c0,6.7-3,12.8-10.6,12.8
	c-10.2,0-11.1-10.8-11.1-18.5c0-7.4,0.9-19,10.9-19c9.9,0,11,11.5,11,19v1.1H578.3z M586.4,137.6c0-2.8,0-9.2-4.1-9.2
	c-4.2,0-4,6.4-4,9.2H586.4z"/>
  <path class="st0" d="M612.8,154.6h-0.1c-1.4,3.2-2.9,5.3-6.7,5.3c-8.4,0-8.6-13.3-8.6-19.2c0-6,0.2-18.3,8.8-18.3
	c3.5,0,5.1,1.9,6.5,4.6h0.1V99.6h6.8v59.8h-6.8V154.6z M613,141.1c0-2.9,0.3-12.7-4.2-12.7c-5,0-4.5,9.7-4.5,12.7
	c0,3-0.6,12.7,4.5,12.7C613.3,153.8,613,144,613,141.1z"/>
  <path class="st0" d="M641.8,159.3V105h9c9.8,0,12.5,5.4,12.5,14.5c0,5.3-1.1,10.5-6.8,12v0.1c6.2,1.9,7.6,6.7,7.6,12.7
	c0,10-3.7,14.8-13.7,14.8H641.8z M649.9,111.1h-1.2v17.8c6.7,0.3,7.6-3.9,7.6-9.6C656.3,115,654.8,111.1,649.9,111.1z M648.6,153.2
	c6.3,0.3,7.8-3,7.8-8.9s-1.2-9.7-7.8-9.6V153.2z"/>
  <path class="st0" d="M669.6,141.2c0-7.9,1.1-18.9,11.4-18.9s11.4,10.9,11.4,18.9c0,7.6-1.1,18.6-11.4,18.6S669.6,148.9,669.6,141.2z
	 M685.6,141.2c0-2.9,0.6-12.7-4.5-12.7s-4.5,9.8-4.5,12.7c0,2.6-0.6,12.5,4.5,12.5S685.6,143.8,685.6,141.2z"/>
  <path class="st0" d="M712,154.6h-0.1c-1.4,3.2-2.9,5.3-6.7,5.3c-8.4,0-8.6-13.3-8.6-19.2c0-6,0.2-18.3,8.8-18.3
	c3.5,0,5.1,1.9,6.5,4.6h0.1V99.6h6.8v59.8H712V154.6z M712.2,141.1c0-2.9,0.3-12.7-4.2-12.7c-5,0-4.5,9.7-4.5,12.7
	c0,3-0.6,12.7,4.5,12.7C712.5,153.8,712.2,144,712.2,141.1z"/>
  <path class="st0" d="M729.7,123l5.3,25.3h0.1l6.1-25.3h6.8l-14.8,51.3h-7.1l5.6-17.9l-9.6-33.4H729.7z"/>
  <path class="st0" d="M755.6,123l3.9,25.3v0.7h0.1l1.6-11.3L764,123h4.8l4.1,25.3v0.7h0.1l1.9-13.5l2.4-12.5h6.6l-8.6,36.4h-4.6
	l-3.7-18.6l-0.7-8.1h-0.1l-1.6,13l-2.7,13.7h-4.7l-8.9-36.4H755.6z"/>
  <path class="st0" d="M785.9,141.2c0-7.9,1.1-18.9,11.4-18.9s11.4,10.9,11.4,18.9c0,7.6-1.1,18.6-11.4,18.6S785.9,148.9,785.9,141.2z
	 M801.8,141.2c0-2.9,0.6-12.7-4.5-12.7s-4.5,9.8-4.5,12.7c0,2.6-0.6,12.5,4.5,12.5S801.8,143.8,801.8,141.2z"/>
  <path class="st0" d="M820.7,127.4h0.1c1.6-3.2,4-5,7.7-5v6.7l-1.2-0.1c-5,0-6.6,2.8-6.6,7.4v22.9h-6.8V123h6.8V127.4z"/>
  <path class="st0" d="M840.1,99.6v39.5h0.1l8.4-16.1h7.6l-9.3,16.1l10.5,20.2h-7.8l-9.4-19.3h-0.1v19.3h-6.8V99.6H840.1z"/>
  <path class="st0" d="M419.8,232.7c-2.2,3.2-5.7,5-9.4,5c-7,0-12.2-6.5-12.2-13.5c0-5.8,3.6-10.6,7.6-14.5c-2.4-3.6-4.3-8.4-4.3-12.7
	c0-6,4.2-10.4,10.4-10.4c6,0,10.4,3.5,10.4,9.8c0,6-4.1,10.4-8.1,14.3l7.1,11.8l4.5-6.3l4.6,3.7l-5.8,8.1l5.8,9.1h-8L419.8,232.7z
	 M409.3,215.2c-2.4,2.6-4.1,5-4.1,8.6c0,3.8,2.4,7.6,6.1,7.6c2.4,0,4.2-1.6,5.5-3.7L409.3,215.2z M416.4,196.2c0-2.4-1.4-4.3-4-4.3
	c-2.4,0-4.2,2.4-4.2,4.8c0,3.1,1.7,5.8,3,8.5C413.6,202.6,416.4,200.1,416.4,196.2z"/>
  <path class="st0" d="M459.2,182.6l7.7,39.2h0.1l0.2-2.2l2.2-13l4.7-23.9h6.3l5,54.3h-7.1l-1.3-20.2l-0.4-10.1l-0.1-7.1h-0.1
	l-1.2,7.8l-5.6,29.7h-5l-7-37.4h-0.1l-2.1,37.4h-6.8l4.5-54.3H459.2z"/>
  <path class="st0" d="M504.7,232.2h-0.1c-1.4,3.2-2.8,5.3-6.7,5.3c-8.4,0-8.6-13.3-8.6-19.2c0-6,0.2-18.3,8.8-18.3
	c3.2,0,5.3,1.9,6.5,4.6h0.1v-4h6.8v36.4h-6.8V232.2z M504.9,218.7c0-2.9,0.3-12.7-4.2-12.7c-5,0-4.5,9.7-4.5,12.7
	c0,3-0.6,12.7,4.5,12.7C505.2,231.4,504.9,221.6,504.9,218.7z"/>
  <path class="st0" d="M531.4,208c-1.3-1.2-3.4-1.9-5-1.9c-2.5,0-4.6,1.4-4.6,3.9c0.1,6.1,11.4,6.4,11.4,16.8c0,6.4-4,10.8-10.4,10.8
	c-2.4,0-3.9-0.5-5.9-1.7v-6.6c1.7,1.4,3.3,2.3,5.6,2.3c3,0,4.5-1.8,4.5-4.6c0-6.4-11.4-6.8-11.4-16.9c0-5.8,4-9.9,9.7-9.9
	c2.3,0,4.2,0.4,6.1,1.6V208z"/>
  <path class="st0" d="M551.3,208c-1.3-1.2-3.4-1.9-5-1.9c-2.5,0-4.6,1.4-4.6,3.9c0.1,6.1,11.4,6.4,11.4,16.8c0,6.4-4,10.8-10.4,10.8
	c-2.4,0-3.9-0.5-5.9-1.7v-6.6c1.7,1.4,3.3,2.3,5.6,2.3c3,0,4.5-1.8,4.5-4.6c0-6.4-11.4-6.8-11.4-16.9c0-5.8,4-9.9,9.7-9.9
	c2.3,0,4.2,0.4,6.1,1.6V208z"/>
  <path class="st0" d="M571.8,232.2h-0.1c-1.4,3.2-2.8,5.3-6.7,5.3c-8.4,0-8.6-13.3-8.6-19.2c0-6,0.2-18.3,8.8-18.3
	c3.2,0,5.3,1.9,6.5,4.6h0.1v-4h6.8v36.4h-6.8V232.2z M572,218.7c0-2.9,0.3-12.7-4.2-12.7c-5,0-4.5,9.7-4.5,12.7
	c0,3-0.6,12.7,4.5,12.7C572.3,231.4,572,221.6,572,218.7z"/>
  <path class="st0" d="M606.1,237.2c0,13-3.9,15.2-11.1,15.2c-6.6,0-10.7-3.7-10.7-10.5v-1h6.6c-0.1,2.6,0.9,5.5,4.3,5.5
	c4.5,0,4.1-4.4,4.1-7.7v-6h-0.1c-0.9,3-3.2,5-6.5,4.9c-8.6,0-8.9-12.3-8.9-18.5c0-5.8-0.1-19,8.7-19c3.6,0,5.2,2,6.6,4.9l0.1-0.1
	v-4.2h6.8V237.2z M594.9,206c-4.7,0-4.2,9.9-4.2,12.5c0,2.7-0.4,12.9,4.5,12.9s4.2-9.6,4.2-12.5S599.3,206,594.9,206z"/>
  <path class="st0" d="M618.2,220.1c0,3-0.1,11.4,4.2,11.4c3.6,0,4.2-4,4.2-6.8h6.3c0,6.7-3,12.8-10.6,12.8
	c-10.2,0-11.1-10.8-11.1-18.5c0-7.4,0.9-19,10.9-19c9.9,0,11,11.5,11,19v1.1H618.2z M626.2,215.2c0-2.8,0-9.2-4.1-9.2
	c-4.2,0-4,6.4-4,9.2H626.2z"/>
  <path class="st0" d="M654.3,236.9v-54.3h8.6c6.2,0,14.1,0.6,14.1,14.5c0,11-4.3,16.1-15.6,15.7v24.1H654.3z M661.5,188.7v18
	c6.2,0.4,7.9-3,7.9-9c0-4.9-1.4-9-6.9-9H661.5z"/>
  <path class="st0" d="M687.8,205h0.1c1.6-3.2,4-5,7.7-5v6.7l-1.2-0.1c-5,0-6.6,2.8-6.6,7.4v22.9H681v-36.4h6.8V205z"/>
  <path class="st0" d="M699.3,218.8c0-7.9,1.1-18.9,11.4-18.9s11.4,10.9,11.4,18.9c0,7.6-1.1,18.6-11.4,18.6S699.3,226.5,699.3,218.8z
	 M715.3,218.8c0-2.9,0.6-12.7-4.5-12.7s-4.5,9.8-4.5,12.7c0,2.6-0.6,12.5,4.5,12.5S715.3,221.4,715.3,218.8z"/>
  <path class="st0" d="M729.1,200.6v-11.7c0-6.2,0.5-12.2,8.2-12.2c1.7,0,3,0.4,4.5,1v7.1c-0.9-0.5-1.7-0.9-2.8-0.9
	c-3.5,0-3.2,3.4-3.2,5.8v10.9h5.6v5.3h-5.6v31h-6.8v-31h-3.4v-5.3H729.1z"/>
  <path class="st0" d="M751.2,220.1c0,3-0.1,11.4,4.2,11.4c3.6,0,4.2-4,4.2-6.8h6.3c0,6.7-3,12.8-10.6,12.8
	c-10.2,0-11.1-10.8-11.1-18.5c0-7.4,0.9-19,10.9-19c9.9,0,11,11.5,11,19v1.1H751.2z M759.2,215.2c0-2.8,0-9.2-4.1-9.2
	c-4.2,0-4,6.4-4,9.2H759.2z"/>
  <path class="st0" d="M785,208c-1.3-1.2-3.4-1.9-5-1.9c-2.5,0-4.6,1.4-4.6,3.9c0.1,6.1,11.4,6.4,11.4,16.8c0,6.4-4,10.8-10.4,10.8
	c-2.4,0-3.9-0.5-5.9-1.7v-6.6c1.7,1.4,3.3,2.3,5.6,2.3c3,0,4.5-1.8,4.5-4.6c0-6.4-11.4-6.8-11.4-16.9c0-5.8,4-9.9,9.7-9.9
	c2.3,0,4.2,0.4,6.1,1.6V208z"/>
  <path class="st0" d="M804.9,208c-1.3-1.2-3.4-1.9-5-1.9c-2.5,0-4.6,1.4-4.6,3.9c0.1,6.1,11.4,6.4,11.4,16.8c0,6.4-4,10.8-10.4,10.8
	c-2.4,0-3.9-0.5-5.9-1.7v-6.6c1.7,1.4,3.3,2.3,5.6,2.3c3,0,4.5-1.8,4.5-4.6c0-6.4-11.4-6.8-11.4-16.9c0-5.8,4-9.9,9.7-9.9
	c2.3,0,4.2,0.4,6.1,1.6V208z"/>
  <path class="st0" d="M809.9,189.5c0-2.4,2-4.5,4.5-4.5c2.4,0,4.5,2,4.5,4.5c0,2.5-2.1,4.5-4.5,4.5
	C811.9,194.1,809.9,192.1,809.9,189.5z M817.8,236.9H811v-36.4h6.8V236.9z"/>
  <path class="st0" d="M822.9,218.8c0-7.9,1.1-18.9,11.4-18.9s11.4,10.9,11.4,18.9c0,7.6-1.1,18.6-11.4,18.6S822.9,226.5,822.9,218.8z
	 M838.9,218.8c0-2.9,0.6-12.7-4.5-12.7s-4.5,9.8-4.5,12.7c0,2.6-0.6,12.5,4.5,12.5S838.9,221.4,838.9,218.8z"/>
  <path class="st0" d="M857.8,204.7h0.1c1.5-3,3.7-4.8,7.3-4.8c7.2,0,7.4,6.4,7.4,12v25h-6.8v-25.1c0-2.5-0.4-5.8-4-5.8
	c-4.5,0-4.1,5.1-4.1,8.2v22.7H851v-36.4h6.8V204.7z"/>
  <path class="st0" d="M893.3,232.2h-0.1c-1.4,3.2-2.8,5.3-6.7,5.3c-8.4,0-8.6-13.3-8.6-19.2c0-6,0.2-18.3,8.8-18.3
	c3.2,0,5.3,1.9,6.5,4.6h0.1v-4h6.8v36.4h-6.8V232.2z M893.5,218.7c0-2.9,0.3-12.7-4.2-12.7c-5,0-4.5,9.7-4.5,12.7
	c0,3-0.6,12.7,4.5,12.7C893.8,231.4,893.5,221.6,893.5,218.7z"/>
  <path class="st0" d="M913,236.9h-6.8v-59.8h6.8V236.9z"/>
  <path class="st0" d="M933,208c-1.3-1.2-3.4-1.9-5-1.9c-2.5,0-4.6,1.4-4.6,3.9c0.1,6.1,11.4,6.4,11.4,16.8c0,6.4-4,10.8-10.4,10.8
	c-2.4,0-3.9-0.5-5.9-1.7v-6.6c1.7,1.4,3.3,2.3,5.6,2.3c3,0,4.5-1.8,4.5-4.6c0-6.4-11.4-6.8-11.4-16.9c0-5.8,4-9.9,9.7-9.9
	c2.3,0,4.2,0.4,6.1,1.6V208z"/>
</svg>
